# xmcd CD database file
#
# Track frame offsets:
#	150
#	23657
#	42677
#	64398
#	85053
#	106424
#	132928
#	151388
#	167779
#	198715
#	216698
#	236739
#	260863
#	283711
#
# Disc length: 4109 seconds
#
# Revision: 0
# Processed by: cddbd v1.5.2PL0 Copyright (c) Steve Scherf et al.
# Submitted via: CDex 1.50
#
DISCID=de100b0e
DTITLE=Various Artist - Cafe Del Mar Vol 15 CD 2
DYEAR=2008
DGENRE=New Age
TTITLE0=DAB - Summer Memories
TTITLE1=Alexander Vögekle ft. Jillene Luce - Breakaway
TTITLE2=Gary B - Eternally Yours
TTITLE3=Gelka ft Beth Hirsch - Under My Star
TTITLE4=Alessandro Boschi - Tarifa: colores en el viento
TTITLE5=Koru - Closer
TTITLE6=Ensoul - Perfect Days
TTITLE7=Aitor Escobar - Mi Keny
TTITLE8=Santa Cruz - On the Shore
TTITLE9=Duo Mecanico - Charade
TTITLE10=Soul Electrico - Strangers No More
TTITLE11=Marc Puig ft. Maria Collado - To Forget Me
TTITLE12=Yuliet Topaz - Jesus in the Sun
TTITLE13=La Caina - Indian Moon
EXTD=YEAR: 2008
EXTT0=
EXTT1=
EXTT2=
EXTT3=
EXTT4=
EXTT5=
EXTT6=
EXTT7=
EXTT8=
EXTT9=
EXTT10=
EXTT11=
EXTT12=
EXTT13=
PLAYORDER=
